<svg width="101" height="100" viewBox="0 0 101 100" fill="none" xmlns="http://www.w3.org/2000/svg">
<path d="M60.2918 8.33325H40.7085C36.3752 8.33325 32.8335 11.8333 32.8335 16.1666V20.0833C32.8335 24.4166 36.3335 27.9166 40.6668 27.9166H60.2918C64.6252 27.9166 68.1252 24.4166 68.1252 20.0833V16.1666C68.1668 11.8333 64.6252 8.33325 60.2918 8.33325Z" fill="#03639C"/>
<path d="M72.3335 20.0832C72.3335 26.7082 66.9168 32.1249 60.2918 32.1249H40.7085C34.0835 32.1249 28.6668 26.7082 28.6668 20.0832C28.6668 17.7499 26.1668 16.2916 24.0835 17.3749C18.2085 20.4999 14.2085 26.7082 14.2085 33.8332V73.0416C14.2085 83.2916 22.5835 91.6666 32.8335 91.6666H68.1668C78.4168 91.6666 86.7918 83.2916 86.7918 73.0416V33.8332C86.7918 26.7082 82.7918 20.4999 76.9168 17.3749C74.8335 16.2916 72.3335 17.7499 72.3335 20.0832ZM52.0835 70.6249H33.8335C32.1252 70.6249 30.7085 69.2083 30.7085 67.4999C30.7085 65.7916 32.1252 64.3749 33.8335 64.3749H52.0835C53.7918 64.3749 55.2085 65.7916 55.2085 67.4999C55.2085 69.2083 53.7918 70.6249 52.0835 70.6249ZM63.0002 53.9582H33.8335C32.1252 53.9582 30.7085 52.5416 30.7085 50.8332C30.7085 49.1249 32.1252 47.7082 33.8335 47.7082H63.0002C64.7085 47.7082 66.1252 49.1249 66.1252 50.8332C66.1252 52.5416 64.7085 53.9582 63.0002 53.9582Z" fill="#03639C"/>
</svg>
