<svg width="350" height="10" viewBox="0 0 350 10" fill="none" xmlns="http://www.w3.org/2000/svg">
<g opacity="0.5">
<path d="M6.41324 0.352801C5.31524 1.8648 4.32124 3.45981 3.29024 5.01781C2.36924 6.40881 1.25624 7.7908 0.68224 9.3658C0.50424 9.8538 1.16524 10.1458 1.49924 9.84081C2.73624 8.71281 3.59524 7.1198 4.52824 5.7408C5.57624 4.1928 6.67224 2.66782 7.65224 1.07582C8.14524 0.274824 6.94424 -0.379199 6.41324 0.352801Z" fill="#FBFCFC"/>
<path d="M13.5295 0.352801C12.4315 1.8648 11.4375 3.45981 10.4065 5.01781C9.48545 6.40881 8.37145 7.7908 7.79845 9.3658C7.62045 9.8538 8.28145 10.1458 8.61545 9.84081C9.85245 8.71281 10.7115 7.1198 11.6445 5.7408C12.6925 4.1928 13.7885 2.66782 14.7685 1.07582C15.2615 0.274824 14.0605 -0.379199 13.5295 0.352801Z" fill="#FBFCFC"/>
<path d="M20.6456 0.352801C19.5476 1.8648 18.5537 3.45981 17.5227 5.01781C16.6017 6.40881 15.4877 7.7908 14.9147 9.3658C14.7367 9.8538 15.3977 10.1458 15.7317 9.84081C16.9687 8.71281 17.8277 7.1198 18.7607 5.7408C19.8087 4.1928 20.9047 2.66782 21.8847 1.07582C22.3777 0.274824 21.1766 -0.379199 20.6456 0.352801Z" fill="#FBFCFC"/>
<path d="M27.7619 0.352801C26.6639 1.8648 25.6699 3.45981 24.6389 5.01781C23.7179 6.40881 22.6049 7.7908 22.0309 9.3658C21.8529 9.8538 22.5139 10.1458 22.8479 9.84081C24.0849 8.71281 24.9439 7.1198 25.8769 5.7408C26.9249 4.1928 28.0209 2.66782 29.0009 1.07582C29.4939 0.274824 28.2929 -0.379199 27.7619 0.352801Z" fill="#FBFCFC"/>
<path d="M34.8781 0.352801C33.7801 1.8648 32.7861 3.45981 31.7551 5.01781C30.8341 6.40881 29.7201 7.7908 29.1471 9.3658C28.9691 9.8538 29.6301 10.1458 29.9641 9.84081C31.2011 8.71281 32.0601 7.1198 32.9931 5.7408C34.0411 4.1928 35.1371 2.66782 36.1171 1.07582C36.6101 0.274824 35.4101 -0.379199 34.8781 0.352801Z" fill="#FBFCFC"/>
<path d="M41.9943 0.352801C40.8963 1.8648 39.9023 3.45981 38.8713 5.01781C37.9503 6.40881 36.8363 7.7908 36.2633 9.3658C36.0853 9.8538 36.7463 10.1458 37.0803 9.84081C38.3173 8.71281 39.1763 7.1198 40.1093 5.7408C41.1573 4.1928 42.2533 2.66782 43.2333 1.07582C43.7263 0.274824 42.5253 -0.379199 41.9943 0.352801Z" fill="#FBFCFC"/>
<path d="M49.1105 0.352801C48.0125 1.8648 47.0185 3.45981 45.9875 5.01781C45.0665 6.40881 43.9535 7.7908 43.3795 9.3658C43.2015 9.8538 43.8625 10.1458 44.1965 9.84081C45.4335 8.71281 46.2925 7.1198 47.2255 5.7408C48.2735 4.1928 49.3695 2.66782 50.3495 1.07582C50.8425 0.274824 49.6425 -0.379199 49.1105 0.352801Z" fill="#FBFCFC"/>
<path d="M56.2267 0.352801C55.1287 1.8648 54.1347 3.45981 53.1037 5.01781C52.1827 6.40881 51.0697 7.7908 50.4957 9.3658C50.3177 9.8538 50.9787 10.1458 51.3127 9.84081C52.5497 8.71281 53.4087 7.1198 54.3417 5.7408C55.3897 4.1928 56.4857 2.66782 57.4657 1.07582C57.9587 0.274824 56.7577 -0.379199 56.2267 0.352801Z" fill="#FBFCFC"/>
<path d="M63.3429 0.352801C62.2449 1.8648 61.2509 3.45981 60.2199 5.01781C59.2989 6.40881 58.1849 7.7908 57.6119 9.3658C57.4339 9.8538 58.0949 10.1458 58.4289 9.84081C59.6659 8.71281 60.5249 7.1198 61.4579 5.7408C62.5059 4.1928 63.6019 2.66782 64.5819 1.07582C65.0749 0.274824 63.8739 -0.379199 63.3429 0.352801Z" fill="#FBFCFC"/>
<path d="M70.4592 0.352801C69.3612 1.8648 68.3671 3.45981 67.3361 5.01781C66.4151 6.40881 65.3011 7.7908 64.7281 9.3658C64.5501 9.8538 65.2112 10.1458 65.5452 9.84081C66.7822 8.71281 67.6411 7.1198 68.5741 5.7408C69.6221 4.1928 70.7181 2.66782 71.6981 1.07582C72.1911 0.274824 70.9912 -0.379199 70.4592 0.352801Z" fill="#FBFCFC"/>
<path d="M77.5753 0.352801C76.4773 1.8648 75.4834 3.45981 74.4524 5.01781C73.5314 6.40881 72.4183 7.7908 71.8443 9.3658C71.6663 9.8538 72.3273 10.1458 72.6613 9.84081C73.8983 8.71281 74.7573 7.1198 75.6903 5.7408C76.7383 4.1928 77.8344 2.66782 78.8144 1.07582C79.3074 0.274824 78.1063 -0.379199 77.5753 0.352801Z" fill="#FBFCFC"/>
<path d="M84.6916 0.352801C83.5936 1.8648 82.5996 3.45981 81.5686 5.01781C80.6476 6.40881 79.5346 7.7908 78.9606 9.3658C78.7826 9.8538 79.4436 10.1458 79.7776 9.84081C81.0146 8.71281 81.8736 7.1198 82.8066 5.7408C83.8546 4.1928 84.9506 2.66782 85.9306 1.07582C86.4236 0.274824 85.2236 -0.379199 84.6916 0.352801Z" fill="#FBFCFC"/>
<path d="M91.8078 0.352801C90.7098 1.8648 89.7158 3.45981 88.6848 5.01781C87.7638 6.40881 86.6498 7.7908 86.0768 9.3658C85.8988 9.8538 86.5598 10.1458 86.8938 9.84081C88.1308 8.71281 88.9897 7.1198 89.9227 5.7408C90.9707 4.1928 92.0668 2.66782 93.0468 1.07582C93.5398 0.274824 92.3388 -0.379199 91.8078 0.352801Z" fill="#FBFCFC"/>
<path d="M98.924 0.352801C97.826 1.8648 96.832 3.45981 95.801 5.01781C94.88 6.40881 93.766 7.7908 93.193 9.3658C93.015 9.8538 93.676 10.1458 94.01 9.84081C95.247 8.71281 96.106 7.1198 97.039 5.7408C98.087 4.1928 99.183 2.66782 100.163 1.07582C100.656 0.274824 99.455 -0.379199 98.924 0.352801Z" fill="#FBFCFC"/>
<path d="M106.04 0.352801C104.942 1.8648 103.948 3.45981 102.917 5.01781C101.996 6.40881 100.882 7.7908 100.309 9.3658C100.131 9.8538 100.792 10.1458 101.126 9.84081C102.363 8.71281 103.222 7.1198 104.155 5.7408C105.203 4.1928 106.299 2.66782 107.279 1.07582C107.772 0.274824 106.572 -0.379199 106.04 0.352801Z" fill="#FBFCFC"/>
<path d="M113.156 0.352801C112.058 1.8648 111.064 3.45981 110.033 5.01781C109.112 6.40881 107.999 7.7908 107.425 9.3658C107.247 9.8538 107.908 10.1458 108.242 9.84081C109.479 8.71281 110.338 7.1198 111.271 5.7408C112.319 4.1928 113.415 2.66782 114.395 1.07582C114.888 0.274824 113.687 -0.379199 113.156 0.352801Z" fill="#FBFCFC"/>
<path d="M120.273 0.352801C119.175 1.8648 118.181 3.45981 117.15 5.01781C116.229 6.40881 115.115 7.7908 114.542 9.3658C114.364 9.8538 115.025 10.1458 115.359 9.84081C116.596 8.71281 117.455 7.1198 118.388 5.7408C119.436 4.1928 120.532 2.66782 121.512 1.07582C122.005 0.274824 120.805 -0.379199 120.273 0.352801Z" fill="#FBFCFC"/>
<path d="M127.389 0.352801C126.291 1.8648 125.297 3.45981 124.266 5.01781C123.345 6.40881 122.232 7.7908 121.658 9.3658C121.48 9.8538 122.141 10.1458 122.475 9.84081C123.712 8.71281 124.571 7.1198 125.504 5.7408C126.552 4.1928 127.648 2.66782 128.628 1.07582C129.121 0.274824 127.92 -0.379199 127.389 0.352801Z" fill="#FBFCFC"/>
<path d="M134.505 0.352801C133.407 1.8648 132.413 3.45981 131.382 5.01781C130.461 6.40881 129.348 7.7908 128.774 9.3658C128.596 9.8538 129.257 10.1458 129.591 9.84081C130.828 8.71281 131.687 7.1198 132.62 5.7408C133.668 4.1928 134.764 2.66782 135.744 1.07582C136.237 0.274824 135.036 -0.379199 134.505 0.352801Z" fill="#FBFCFC"/>
<path d="M141.621 0.352801C140.523 1.8648 139.529 3.45981 138.498 5.01781C137.577 6.40881 136.463 7.7908 135.89 9.3658C135.712 9.8538 136.373 10.1458 136.707 9.84081C137.944 8.71281 138.803 7.1198 139.736 5.7408C140.784 4.1928 141.88 2.66782 142.86 1.07582C143.353 0.274824 142.153 -0.379199 141.621 0.352801Z" fill="#FBFCFC"/>
<path d="M148.737 0.352801C147.639 1.8648 146.645 3.45981 145.614 5.01781C144.693 6.40881 143.579 7.7908 143.006 9.3658C142.828 9.8538 143.489 10.1458 143.823 9.84081C145.06 8.71281 145.919 7.1198 146.852 5.7408C147.9 4.1928 148.996 2.66782 149.976 1.07582C150.469 0.274824 149.268 -0.379199 148.737 0.352801Z" fill="#FBFCFC"/>
<path d="M155.854 0.352801C154.756 1.8648 153.762 3.45981 152.731 5.01781C151.81 6.40881 150.697 7.7908 150.123 9.3658C149.945 9.8538 150.606 10.1458 150.94 9.84081C152.177 8.71281 153.036 7.1198 153.969 5.7408C155.017 4.1928 156.113 2.66782 157.093 1.07582C157.586 0.274824 156.386 -0.379199 155.854 0.352801Z" fill="#FBFCFC"/>
<path d="M162.97 0.352801C161.872 1.8648 160.878 3.45981 159.847 5.01781C158.926 6.40881 157.813 7.7908 157.239 9.3658C157.061 9.8538 157.722 10.1458 158.056 9.84081C159.293 8.71281 160.152 7.1198 161.085 5.7408C162.133 4.1928 163.229 2.66782 164.209 1.07582C164.702 0.274824 163.501 -0.379199 162.97 0.352801Z" fill="#FBFCFC"/>
<path d="M170.086 0.352801C168.988 1.8648 167.994 3.45981 166.963 5.01781C166.042 6.40881 164.928 7.7908 164.355 9.3658C164.177 9.8538 164.838 10.1458 165.172 9.84081C166.409 8.71281 167.268 7.1198 168.201 5.7408C169.249 4.1928 170.345 2.66782 171.325 1.07582C171.818 0.274824 170.617 -0.379199 170.086 0.352801Z" fill="#FBFCFC"/>
<path d="M177.202 0.352801C176.104 1.8648 175.11 3.45981 174.079 5.01781C173.158 6.40881 172.044 7.7908 171.471 9.3658C171.293 9.8538 171.954 10.1458 172.288 9.84081C173.525 8.71281 174.384 7.1198 175.317 5.7408C176.365 4.1928 177.461 2.66782 178.441 1.07582C178.934 0.274824 177.734 -0.379199 177.202 0.352801Z" fill="#FBFCFC"/>
<path d="M184.319 0.352801C183.221 1.8648 182.227 3.45981 181.196 5.01781C180.275 6.40881 179.162 7.7908 178.588 9.3658C178.41 9.8538 179.071 10.1458 179.405 9.84081C180.641 8.71281 181.501 7.1198 182.434 5.7408C183.482 4.1928 184.578 2.66782 185.558 1.07582C186.051 0.274824 184.85 -0.379199 184.319 0.352801Z" fill="#FBFCFC"/>
<path d="M191.435 0.352801C190.337 1.8648 189.343 3.45981 188.312 5.01781C187.391 6.40881 186.278 7.7908 185.704 9.3658C185.526 9.8538 186.187 10.1458 186.521 9.84081C187.758 8.71281 188.617 7.1198 189.55 5.7408C190.598 4.1928 191.694 2.66782 192.674 1.07582C193.167 0.274824 191.967 -0.379199 191.435 0.352801Z" fill="#FBFCFC"/>
<path d="M198.551 0.352801C197.453 1.8648 196.459 3.45981 195.428 5.01781C194.507 6.40881 193.393 7.7908 192.82 9.3658C192.642 9.8538 193.303 10.1458 193.637 9.84081C194.874 8.71281 195.733 7.1198 196.666 5.7408C197.714 4.1928 198.81 2.66782 199.79 1.07582C200.283 0.274824 199.082 -0.379199 198.551 0.352801Z" fill="#FBFCFC"/>
<path d="M205.667 0.352801C204.569 1.8648 203.575 3.45981 202.544 5.01781C201.623 6.40881 200.51 7.7908 199.936 9.3658C199.758 9.8538 200.419 10.1458 200.753 9.84081C201.99 8.71281 202.849 7.1198 203.782 5.7408C204.83 4.1928 205.926 2.66782 206.906 1.07582C207.399 0.274824 206.198 -0.379199 205.667 0.352801Z" fill="#FBFCFC"/>
<path d="M212.783 0.352801C211.685 1.8648 210.691 3.45981 209.66 5.01781C208.739 6.40881 207.625 7.7908 207.052 9.3658C206.874 9.8538 207.535 10.1458 207.869 9.84081C209.106 8.71281 209.965 7.1198 210.898 5.7408C211.946 4.1928 213.042 2.66782 214.022 1.07582C214.515 0.274824 213.315 -0.379199 212.783 0.352801Z" fill="#FBFCFC"/>
<path d="M219.9 0.352801C218.802 1.8648 217.808 3.45981 216.777 5.01781C215.856 6.40881 214.742 7.7908 214.169 9.3658C213.991 9.8538 214.652 10.1458 214.986 9.84081C216.223 8.71281 217.082 7.1198 218.015 5.7408C219.063 4.1928 220.159 2.66782 221.139 1.07582C221.632 0.274824 220.431 -0.379199 219.9 0.352801Z" fill="#FBFCFC"/>
<path d="M227.016 0.352801C225.918 1.8648 224.924 3.45981 223.893 5.01781C222.972 6.40881 221.858 7.7908 221.285 9.3658C221.107 9.8538 221.768 10.1458 222.102 9.84081C223.339 8.71281 224.198 7.1198 225.131 5.7408C226.179 4.1928 227.275 2.66782 228.255 1.07582C228.748 0.274824 227.548 -0.379199 227.016 0.352801Z" fill="#FBFCFC"/>
<path d="M234.132 0.352801C233.034 1.8648 232.04 3.45981 231.009 5.01781C230.088 6.40881 228.975 7.7908 228.401 9.3658C228.223 9.8538 228.884 10.1458 229.218 9.84081C230.455 8.71281 231.314 7.1198 232.247 5.7408C233.295 4.1928 234.391 2.66782 235.371 1.07582C235.864 0.274824 234.663 -0.379199 234.132 0.352801Z" fill="#FBFCFC"/>
<path d="M241.248 0.352801C240.15 1.8648 239.156 3.45981 238.125 5.01781C237.204 6.40881 236.091 7.7908 235.517 9.3658C235.339 9.8538 236 10.1458 236.334 9.84081C237.571 8.71281 238.43 7.1198 239.363 5.7408C240.411 4.1928 241.507 2.66782 242.487 1.07582C242.98 0.274824 241.779 -0.379199 241.248 0.352801Z" fill="#FBFCFC"/>
<path d="M248.364 0.352801C247.266 1.8648 246.272 3.45981 245.241 5.01781C244.32 6.40881 243.206 7.7908 242.633 9.3658C242.455 9.8538 243.116 10.1458 243.45 9.84081C244.687 8.71281 245.546 7.1198 246.479 5.7408C247.527 4.1928 248.623 2.66782 249.603 1.07582C250.096 0.274824 248.896 -0.379199 248.364 0.352801Z" fill="#FBFCFC"/>
<path d="M255.481 0.352801C254.383 1.8648 253.389 3.45981 252.358 5.01781C251.437 6.40881 250.323 7.7908 249.75 9.3658C249.572 9.8538 250.233 10.1458 250.567 9.84081C251.804 8.71281 252.663 7.1198 253.596 5.7408C254.644 4.1928 255.74 2.66782 256.72 1.07582C257.213 0.274824 256.012 -0.379199 255.481 0.352801Z" fill="#FBFCFC"/>
<path d="M262.597 0.352801C261.499 1.8648 260.505 3.45981 259.474 5.01781C258.553 6.40881 257.44 7.7908 256.866 9.3658C256.688 9.8538 257.349 10.1458 257.683 9.84081C258.92 8.71281 259.779 7.1198 260.712 5.7408C261.76 4.1928 262.856 2.66782 263.836 1.07582C264.329 0.274824 263.129 -0.379199 262.597 0.352801Z" fill="#FBFCFC"/>
<path d="M269.713 0.352801C268.615 1.8648 267.621 3.45981 266.59 5.01781C265.669 6.40881 264.556 7.7908 263.982 9.3658C263.804 9.8538 264.465 10.1458 264.799 9.84081C266.036 8.71281 266.895 7.1198 267.828 5.7408C268.876 4.1928 269.972 2.66782 270.952 1.07582C271.445 0.274824 270.244 -0.379199 269.713 0.352801Z" fill="#FBFCFC"/>
<path d="M276.829 0.352801C275.731 1.8648 274.737 3.45981 273.706 5.01781C272.785 6.40881 271.671 7.7908 271.098 9.3658C270.92 9.8538 271.581 10.1458 271.915 9.84081C273.152 8.71281 274.011 7.1198 274.944 5.7408C275.992 4.1928 277.088 2.66782 278.068 1.07582C278.561 0.274824 277.36 -0.379199 276.829 0.352801Z" fill="#FBFCFC"/>
<path d="M283.945 0.352801C282.847 1.8648 281.853 3.45981 280.822 5.01781C279.901 6.40881 278.787 7.7908 278.214 9.3658C278.036 9.8538 278.697 10.1458 279.031 9.84081C280.268 8.71281 281.127 7.1198 282.06 5.7408C283.108 4.1928 284.204 2.66782 285.184 1.07582C285.677 0.274824 284.477 -0.379199 283.945 0.352801Z" fill="#FBFCFC"/>
<path d="M291.062 0.352801C289.964 1.8648 288.97 3.45981 287.939 5.01781C287.018 6.40881 285.905 7.7908 285.331 9.3658C285.153 9.8538 285.814 10.1458 286.148 9.84081C287.385 8.71281 288.244 7.1198 289.177 5.7408C290.225 4.1928 291.321 2.66782 292.301 1.07582C292.794 0.274824 291.593 -0.379199 291.062 0.352801Z" fill="#FBFCFC"/>
<path d="M298.178 0.352801C297.08 1.8648 296.086 3.45981 295.055 5.01781C294.134 6.40881 293.02 7.7908 292.447 9.3658C292.269 9.8538 292.93 10.1458 293.264 9.84081C294.501 8.71281 295.36 7.1198 296.293 5.7408C297.341 4.1928 298.437 2.66782 299.417 1.07582C299.91 0.274824 298.71 -0.379199 298.178 0.352801Z" fill="#FBFCFC"/>
<path d="M305.294 0.352801C304.196 1.8648 303.202 3.45981 302.171 5.01781C301.25 6.40881 300.136 7.7908 299.563 9.3658C299.385 9.8538 300.046 10.1458 300.38 9.84081C301.617 8.71281 302.476 7.1198 303.409 5.7408C304.457 4.1928 305.553 2.66782 306.533 1.07582C307.026 0.274824 305.825 -0.379199 305.294 0.352801Z" fill="#FBFCFC"/>
<path d="M312.411 0.352801C311.313 1.8648 310.319 3.45981 309.288 5.01781C308.367 6.40881 307.254 7.7908 306.68 9.3658C306.502 9.8538 307.163 10.1458 307.497 9.84081C308.734 8.71281 309.593 7.1198 310.526 5.7408C311.574 4.1928 312.67 2.66782 313.65 1.07582C314.143 0.274824 312.942 -0.379199 312.411 0.352801Z" fill="#FBFCFC"/>
<path d="M319.527 0.352801C318.429 1.8648 317.435 3.45981 316.404 5.01781C315.483 6.40881 314.369 7.7908 313.796 9.3658C313.618 9.8538 314.279 10.1458 314.613 9.84081C315.85 8.71281 316.709 7.1198 317.642 5.7408C318.69 4.1928 319.786 2.66782 320.766 1.07582C321.259 0.274824 320.059 -0.379199 319.527 0.352801Z" fill="#FBFCFC"/>
<path d="M326.644 0.352801C325.546 1.8648 324.552 3.45981 323.521 5.01781C322.6 6.40881 321.486 7.7908 320.913 9.3658C320.735 9.8538 321.396 10.1458 321.73 9.84081C322.967 8.71281 323.826 7.1198 324.759 5.7408C325.807 4.1928 326.903 2.66782 327.883 1.07582C328.376 0.274824 327.175 -0.379199 326.644 0.352801Z" fill="#FBFCFC"/>
<path d="M333.76 0.352801C332.662 1.8648 331.668 3.45981 330.637 5.01781C329.716 6.40881 328.602 7.7908 328.029 9.3658C327.851 9.8538 328.512 10.1458 328.846 9.84081C330.083 8.71281 330.942 7.1198 331.875 5.7408C332.923 4.1928 334.019 2.66782 334.999 1.07582C335.492 0.274824 334.292 -0.379199 333.76 0.352801Z" fill="#FBFCFC"/>
<path d="M340.876 0.352801C339.778 1.8648 338.784 3.45981 337.753 5.01781C336.832 6.40881 335.719 7.7908 335.145 9.3658C334.967 9.8538 335.628 10.1458 335.962 9.84081C337.199 8.71281 338.058 7.1198 338.991 5.7408C340.039 4.1928 341.135 2.66782 342.115 1.07582C342.608 0.274824 341.407 -0.379199 340.876 0.352801Z" fill="#FBFCFC"/>
<path d="M347.992 0.352801C346.894 1.8648 345.9 3.45981 344.869 5.01781C343.948 6.40881 342.835 7.7908 342.261 9.3658C342.083 9.8538 342.744 10.1458 343.078 9.84081C344.315 8.71281 345.174 7.1198 346.107 5.7408C347.155 4.1928 348.251 2.66782 349.231 1.07582C349.724 0.274824 348.523 -0.379199 347.992 0.352801Z" fill="#FBFCFC"/>
</g>
</svg>
