<svg id="Layer_1" data-name="Layer 1" xmlns="http://www.w3.org/2000/svg" viewBox="0 0 312.94 74.72"><defs><style>.cls-1{fill:#2a88c9;}</style></defs><path class="cls-1" d="M74,41.94c0-2.31,0-2.71,0-3.83,0-2-.11-7.6-.14-8.39-.12-3.27-2.42-10.13-6.09-15.3C57.59.1,37.79,0,36.88,0,34.48,0,17.33.46,6.77,14.38A36.28,36.28,0,0,0,0,30.39V64.3s0,.1,0,.15a11.54,11.54,0,0,0,1.07,4.27,12.31,12.31,0,0,0,4.83,5l0,0a10.33,10.33,0,0,0,4.38,1H63.7a10.31,10.31,0,0,0,9.09-5.41h0A18.09,18.09,0,0,0,74,64.69c0-.26,0-.46,0-.76V62.22C74,59.87,73.94,54.76,74,41.94ZM15,62.6V46l14.52,8.33ZM56.8,57.89c-2-4.59-5.92-6.58-10.13-8.37-6.77-2.88-13.53-5.81-20.19-9a30.56,30.56,0,0,1-7.28-4.73c-4.84-4.33-5.52-11-2-16.79,1.83,4,5,6.13,8.74,7.74,7.24,3.1,14.42,6.32,21.61,9.53a23.92,23.92,0,0,1,7.86,5.28A13.06,13.06,0,0,1,56.8,57.89ZM59,31,44.48,22.64,59,14.3Z"/><path class="cls-1" d="M210.45,55.79a14.84,14.84,0,0,1-4.89-.8,12.17,12.17,0,0,1-4.09-2.31,8.41,8.41,0,0,1-2.53-3.61l5-1.85a3.53,3.53,0,0,0,1.25,1.61A7.58,7.58,0,0,0,207.53,50a9.25,9.25,0,0,0,2.92.44,8.91,8.91,0,0,0,3-.49,5.63,5.63,0,0,0,2.25-1.39,2.85,2.85,0,0,0,.86-2.07,2.51,2.51,0,0,0-.9-2,6.67,6.67,0,0,0-2.31-1.24,19.49,19.49,0,0,0-2.9-.71A25.29,25.29,0,0,1,204.59,41a9.84,9.84,0,0,1-4.1-2.92A7.4,7.4,0,0,1,199,33.23a7.78,7.78,0,0,1,1.61-4.88,10.6,10.6,0,0,1,4.22-3.25,13.63,13.63,0,0,1,5.64-1.17,15.4,15.4,0,0,1,4.88.79A12.31,12.31,0,0,1,219.45,27,8.55,8.55,0,0,1,222,30.68l-5.06,1.82a3.49,3.49,0,0,0-1.25-1.6,7.4,7.4,0,0,0-2.3-1.15,9.61,9.61,0,0,0-2.93-.43,8.06,8.06,0,0,0-2.95.49,6.3,6.3,0,0,0-2.28,1.4,2.79,2.79,0,0,0-.88,2,2.85,2.85,0,0,0,.83,2.22,4.88,4.88,0,0,0,2.21,1.08c.92.23,1.94.44,3.07.63a23.06,23.06,0,0,1,5.69,1.63,11,11,0,0,1,4.2,3,7,7,0,0,1,1.58,4.65,7.87,7.87,0,0,1-1.58,4.89,10.42,10.42,0,0,1-4.2,3.26A13.76,13.76,0,0,1,210.45,55.79Z"/><path class="cls-1" d="M238.53,38.65h-4.27V55.27H228.9V38.65h-3.25V33.29h3.25v-6.9h5.36v6.9h4.27Z"/><path class="cls-1" d="M242.1,47.14V33.29h5.36V45.73a4.47,4.47,0,0,0,.64,2.36,4.67,4.67,0,0,0,1.7,1.69,4.51,4.51,0,0,0,2.34.63,4.58,4.58,0,0,0,2.38-.63,4.8,4.8,0,0,0,1.69-1.69,4.56,4.56,0,0,0,.63-2.36V33.29h5.37l0,22h-5.36l0-2a8.43,8.43,0,0,1-2.7,1.87,8,8,0,0,1-3.34.7,8.45,8.45,0,0,1-4.37-1.18,8.86,8.86,0,0,1-3.15-3.14A8.31,8.31,0,0,1,242.1,47.14Z"/><path class="cls-1" d="M283.73,22.31h5.36v33h-5.36V52.52a8.26,8.26,0,0,1-2.66,2.39,7.25,7.25,0,0,1-3.71.93,11.17,11.17,0,0,1-4.48-.9,11.76,11.76,0,0,1-3.68-2.5,11.6,11.6,0,0,1-2.5-3.68,11.6,11.6,0,0,1,0-9,11.86,11.86,0,0,1,6.18-6.18,11.17,11.17,0,0,1,4.48-.9,7.44,7.44,0,0,1,3.71.91A8.09,8.09,0,0,1,283.73,36Zm-6.31,28.36a5.46,5.46,0,0,0,3-.85,6,6,0,0,0,2.06-2.32,7.33,7.33,0,0,0,0-6.46,5.89,5.89,0,0,0-2.07-2.32,5.5,5.5,0,0,0-3-.86,5.71,5.71,0,0,0-3.08.87,6.43,6.43,0,0,0-3,5.55,6.32,6.32,0,0,0,.83,3.23,6.5,6.5,0,0,0,2.23,2.31A5.74,5.74,0,0,0,277.42,50.67Z"/><path class="cls-1" d="M307.25,33.29h5.69l-12,33h-5.69l4-11-7.91-22h5.87l4.73,14.64Z"/><path class="cls-1" d="M106.8,56.56a14.21,14.21,0,0,1-5.87-1.24,15.24,15.24,0,0,1-4.82-3.44,16.5,16.5,0,0,1,0-22.56,15.21,15.21,0,0,1,4.82-3.43,14.53,14.53,0,0,1,12.75.49,15.44,15.44,0,0,1,5.2,4.6l-4.79,2.57A9.66,9.66,0,0,0,110.88,31a9,9,0,0,0-4.08-1,8.93,8.93,0,0,0-3.8.83,9.74,9.74,0,0,0-3.12,2.28,10.89,10.89,0,0,0-2.09,3.39,11.51,11.51,0,0,0,0,8.2,11.06,11.06,0,0,0,2.1,3.38A9.81,9.81,0,0,0,103,50.37a9.07,9.07,0,0,0,7.89-.15,9.81,9.81,0,0,0,3.19-2.58l4.79,2.59a15.74,15.74,0,0,1-5.2,4.59A14,14,0,0,1,106.8,56.56Z"/><path class="cls-1" d="M122.48,56l0-22h5.36l0,2a8.25,8.25,0,0,1,6-2.57,8.74,8.74,0,0,1,2.42.35l-2.11,5.41a4.63,4.63,0,0,0-4,.29,4.72,4.72,0,0,0-1.69,1.69,4.57,4.57,0,0,0-.63,2.37V56Z"/><path class="cls-1" d="M148.77,56.56A10.22,10.22,0,0,1,143.24,55a11.7,11.7,0,0,1-5.46-10,11.82,11.82,0,0,1,.86-4.5A12.06,12.06,0,0,1,141,36.79a11,11,0,0,1,3.5-2.49,10.32,10.32,0,0,1,4.27-.9,10.2,10.2,0,0,1,4.71,1.09,10.79,10.79,0,0,1,3.64,3,12.25,12.25,0,0,1,2.17,4.31,12,12,0,0,1,.31,5H143.54a6.28,6.28,0,0,0,1,2.21,5.19,5.19,0,0,0,4.22,2.17,4.81,4.81,0,0,0,2.56-.67,5.94,5.94,0,0,0,1.92-1.88l5.47,1.27a11.67,11.67,0,0,1-4,4.78A10.14,10.14,0,0,1,148.77,56.56ZM143.36,42.8h10.81a5.69,5.69,0,0,0-1-2.38,5.9,5.9,0,0,0-1.92-1.7,4.91,4.91,0,0,0-2.46-.64,5,5,0,0,0-2.44.62,5.93,5.93,0,0,0-1.9,1.7A6.21,6.21,0,0,0,143.36,42.8Z"/><path class="cls-1" d="M170.59,56.38a11.56,11.56,0,0,1-3.3-.69,9.65,9.65,0,0,1-2.83-1.59,6.93,6.93,0,0,1-1.89-2.42l4.53-1.93a4,4,0,0,0,.86.93,5.14,5.14,0,0,0,1.42.82,4.78,4.78,0,0,0,1.81.33,5.23,5.23,0,0,0,1.59-.23,2.76,2.76,0,0,0,1.23-.71,1.69,1.69,0,0,0,.47-1.25,1.51,1.51,0,0,0-.56-1.27,3.89,3.89,0,0,0-1.4-.68l-1.64-.43A15.8,15.8,0,0,1,167,46a8.24,8.24,0,0,1-2.88-2.28A5.33,5.33,0,0,1,163,40.32a6.21,6.21,0,0,1,1.15-3.76,7.61,7.61,0,0,1,3-2.44,9.46,9.46,0,0,1,4-.85,10.7,10.7,0,0,1,4.8,1.08,8.59,8.59,0,0,1,3.46,3.07l-4.24,2.5a3.69,3.69,0,0,0-.86-1,5,5,0,0,0-1.25-.75,4.38,4.38,0,0,0-1.47-.34,6.06,6.06,0,0,0-1.8.17,2.78,2.78,0,0,0-1.31.75,2,2,0,0,0-.49,1.41,1.35,1.35,0,0,0,.65,1.24,5.29,5.29,0,0,0,1.6.62c.62.15,1.22.31,1.79.49a21.12,21.12,0,0,1,3.63,1.56,8.45,8.45,0,0,1,2.74,2.26,4.9,4.9,0,0,1,1,3.21,5.82,5.82,0,0,1-1.27,3.72,8,8,0,0,1-3.29,2.43A9.13,9.13,0,0,1,170.59,56.38Z"/><path class="cls-1" d="M195.42,39.37h-4.26V56H185.8V39.37h-3.25V34h3.25v-6.9h5.36V34h4.26Z"/></svg>