<svg width="100" height="100" viewBox="0 0 100 100" fill="none" xmlns="http://www.w3.org/2000/svg">
<path d="M70.083 7.95825H29.9163C21.083 7.95825 13.833 15.2083 13.833 24.0416V82.7499C13.833 90.2499 19.208 93.4166 25.7913 89.7916L46.1247 78.4999C48.2913 77.2916 51.7913 77.2916 53.9163 78.4999L74.2497 89.7916C80.833 93.4582 86.208 90.2916 86.208 82.7499V24.0416C86.1663 15.2083 78.958 7.95825 70.083 7.95825ZM65.083 37.6249L48.4163 54.2916C47.7913 54.9166 46.9997 55.2083 46.208 55.2083C45.4163 55.2083 44.6247 54.9166 43.9997 54.2916L37.7497 48.0416C36.5413 46.8332 36.5413 44.8333 37.7497 43.6249C38.958 42.4166 40.958 42.4166 42.1663 43.6249L46.208 47.6666L60.6663 33.2083C61.8747 31.9999 63.8747 31.9999 65.083 33.2083C66.2913 34.4166 66.2913 36.4166 65.083 37.6249Z" fill="#03639C"/>
</svg>
