<svg width="101" height="100" viewBox="0 0 101 100" fill="none" xmlns="http://www.w3.org/2000/svg">
<path d="M84.2497 38.4166C76.708 38.4166 73.6247 33.0832 77.3747 26.5416C79.5413 22.7499 78.2497 17.9166 74.458 15.7499L67.2497 11.6249C63.958 9.66656 59.708 10.8332 57.7497 14.1249L57.2913 14.9166C53.5413 21.4582 47.3747 21.4582 43.583 14.9166L43.1247 14.1249C41.2497 10.8332 36.9997 9.66656 33.708 11.6249L26.4997 15.7499C22.708 17.9166 21.4163 22.7916 23.583 26.5832C27.3747 33.0832 24.2913 38.4166 16.7497 38.4166C12.4163 38.4166 8.83301 41.9582 8.83301 46.3332V53.6666C8.83301 57.9999 12.3747 61.5832 16.7497 61.5832C24.2913 61.5832 27.3747 66.9166 23.583 73.4582C21.4163 77.2499 22.708 82.0832 26.4997 84.2499L33.708 88.3749C36.9997 90.3332 41.2497 89.1666 43.208 85.8749L43.6663 85.0832C47.4163 78.5416 53.583 78.5416 57.3747 85.0832L57.833 85.8749C59.7913 89.1666 64.0413 90.3332 67.333 88.3749L74.5413 84.2499C78.333 82.0832 79.6247 77.2082 77.458 73.4582C73.6663 66.9166 76.7497 61.5832 84.2913 61.5832C88.6247 61.5832 92.208 58.0416 92.208 53.6666V46.3332C92.1663 41.9999 88.6247 38.4166 84.2497 38.4166ZM50.4997 63.5416C43.0413 63.5416 36.958 57.4582 36.958 49.9999C36.958 42.5416 43.0413 36.4582 50.4997 36.4582C57.958 36.4582 64.0413 42.5416 64.0413 49.9999C64.0413 57.4582 57.958 63.5416 50.4997 63.5416Z" fill="#03639C"/>
</svg>
