<svg width="52" height="52" viewBox="0 0 52 52" fill="none" xmlns="http://www.w3.org/2000/svg">
<path d="M52 29.1874C52 27.5798 52 27.3014 52 26.5219C52 25.1301 51.9227 21.2329 51.9016 20.6831C51.8173 18.4074 50.2011 13.6333 47.6222 10.0353C40.4686 0.0695934 26.5551 0 25.9157 0C24.2292 0 12.1778 0.320128 4.7573 10.0075C2.28331 13.2848 0.650688 17.1085 0 21.1494L0 44.7484C0 44.7484 0 44.818 0 44.8528C0.0557785 45.8819 0.311053 46.8908 0.751892 47.8244C1.52218 49.2831 2.70052 50.4912 4.14595 51.3041C5.10791 51.7569 6.15871 51.9944 7.22378 52H44.7622C46.071 52.0024 47.356 51.6535 48.4807 50.9906C49.6053 50.3277 50.5277 49.3754 51.1497 48.235C51.5754 47.2052 51.8613 46.124 52 45.0198C52 44.8389 52 44.6997 52 44.4909V43.3008C52 41.6654 51.9578 38.1092 52 29.1874ZM10.5405 43.5653V32.0128L20.7438 37.8099L10.5405 43.5653ZM39.9135 40.2875C38.5081 37.0931 35.7535 35.7082 32.7951 34.4625C28.0378 32.4582 23.2876 30.4192 18.6076 28.1991C16.7529 27.3486 15.0303 26.2401 13.4919 24.9074C10.0908 21.894 9.61297 17.2521 12.0865 13.2227C13.3724 16.0064 15.6 17.4888 18.2281 18.6092C23.3157 20.7666 28.3611 23.0075 33.4135 25.2414C35.4834 26.0895 37.3613 27.3389 38.9368 28.9159C40.3866 30.4158 41.2743 32.362 41.452 34.431C41.6297 36.4999 41.0868 38.5666 39.9135 40.2875ZM41.4595 21.5739L31.2562 15.7559L41.4595 9.95182V21.5739Z" fill="#048BDC"/>
</svg>
