<svg width="101" height="100" viewBox="0 0 101 100" fill="none" xmlns="http://www.w3.org/2000/svg">
<path d="M67.958 8.33325H33.0413C17.8747 8.33325 8.83301 17.3749 8.83301 32.5416V67.4166C8.83301 82.6249 17.8747 91.6666 33.0413 91.6666H67.9163C83.083 91.6666 92.1247 82.6249 92.1247 67.4583V32.5416C92.1663 17.3749 83.1247 8.33325 67.958 8.33325ZM48.4163 71.8749C48.4163 73.3749 46.9163 74.3749 45.5413 73.7916C40.4997 71.6249 33.9163 69.6249 29.333 69.0416L28.5413 68.9582C25.9997 68.6249 23.9163 66.2499 23.9163 63.6666V31.5833C23.9163 28.3749 26.4997 25.9999 29.6663 26.2499C34.8747 26.6666 42.583 29.1666 47.4163 31.9166C48.083 32.2916 48.4163 32.9999 48.4163 33.7083V71.8749ZM77.083 63.6249C77.083 66.2083 74.9997 68.5833 72.458 68.9166L71.583 68.9999C67.0413 69.6249 60.4997 71.5833 55.458 73.7083C54.083 74.2916 52.583 73.2916 52.583 71.7916V33.6666C52.583 32.9166 52.958 32.2083 53.6247 31.8333C58.458 29.1249 65.9997 26.7083 71.1247 26.2499H71.2913C74.4997 26.2499 77.083 28.8333 77.083 32.0416V63.6249Z" fill="#03639C"/>
</svg>
