<svg width="100" height="100" viewBox="0 0 100 100" fill="none" xmlns="http://www.w3.org/2000/svg">
<path d="M88.5413 38.1251C78.9163 23.0001 64.833 14.2917 49.9997 14.2917C42.583 14.2917 35.3747 16.4584 28.7913 20.5001C22.208 24.5834 16.2913 30.5417 11.458 38.1251C7.29134 44.6667 7.29134 55.2918 11.458 61.8334C21.083 77.0001 35.1663 85.6667 49.9997 85.6667C57.4163 85.6667 64.6247 83.5001 71.208 79.4584C77.7913 75.3751 83.708 69.4168 88.5413 61.8334C92.708 55.3334 92.708 44.6667 88.5413 38.1251ZM49.9997 66.8334C40.6663 66.8334 33.1663 59.2918 33.1663 50.0001C33.1663 40.7084 40.6663 33.1667 49.9997 33.1667C59.333 33.1667 66.833 40.7084 66.833 50.0001C66.833 59.2918 59.333 66.8334 49.9997 66.8334Z" fill="#03639C"/>
<path d="M50 38.0833C43.4583 38.0833 38.125 43.4166 38.125 49.9999C38.125 56.5416 43.4583 61.8749 50 61.8749C56.5417 61.8749 61.9167 56.5416 61.9167 49.9999C61.9167 43.4582 56.5417 38.0833 50 38.0833Z" fill="#03639C"/>
</svg>
