<svg width="130" height="32" viewBox="0 0 130 32" fill="none" xmlns="http://www.w3.org/2000/svg">
<g clip-path="url(#clip0_2493_40221)">
<path d="M16 0C24.8368 0 32 7.1632 32 16V27.2C32 28.473 31.4943 29.6939 30.5941 30.5941C29.6939 31.4943 28.473 32 27.2 32H16.8V24.9808C16.8 23.3792 16.8976 21.72 17.7376 20.3568C18.339 19.3799 19.1434 18.5437 20.0964 17.905C21.0494 17.2664 22.1286 16.8401 23.2608 16.6552L23.5672 16.6056C23.6935 16.5624 23.8031 16.4808 23.8808 16.3722C23.9584 16.2636 24.0002 16.1335 24.0002 16C24.0002 15.8665 23.9584 15.7364 23.8808 15.6278C23.8031 15.5192 23.6935 15.4376 23.5672 15.3944L23.2608 15.3448C21.6065 15.0746 20.0789 14.2916 18.8937 13.1063C17.7084 11.9211 16.9254 10.3935 16.6552 8.7392L16.6056 8.4328C16.5624 8.30648 16.4808 8.19683 16.3722 8.11918C16.2636 8.04154 16.1335 7.9998 16 7.9998C15.8665 7.9998 15.7363 8.04154 15.6277 8.11918C15.5191 8.19683 15.4375 8.30648 15.3944 8.4328L15.3448 8.7392C15.1599 9.87142 14.7337 10.9506 14.095 11.9036C13.4563 12.8566 12.6201 13.661 11.6432 14.2624C10.28 15.1024 8.62077 15.2 7.01917 15.2H0.019165C0.437565 6.7352 7.43196 0 16 0Z" fill="#048BDC"/>
<path d="M0 16.8H7.0192C8.6208 16.8 10.28 16.8976 11.6432 17.7376C12.7088 18.3942 13.6058 19.2912 14.2624 20.3568C15.1024 21.72 15.2 23.3792 15.2 24.9808V32H4.8C3.52696 32 2.30606 31.4943 1.40589 30.5941C0.505713 29.6939 0 28.473 0 27.2L0 16.8ZM32 1.6C32 2.02435 31.8314 2.43131 31.5314 2.73137C31.2313 3.03143 30.8243 3.2 30.4 3.2C29.9757 3.2 29.5687 3.03143 29.2686 2.73137C28.9686 2.43131 28.8 2.02435 28.8 1.6C28.8 1.17565 28.9686 0.768687 29.2686 0.468629C29.5687 0.168571 29.9757 0 30.4 0C30.8243 0 31.2313 0.168571 31.5314 0.468629C31.8314 0.768687 32 1.17565 32 1.6Z" fill="#048BDC"/>
</g>
<path d="M45.571 22.234C44.881 22.234 44.218 22.126 43.582 21.91C42.946 21.694 42.391 21.385 41.917 20.983C41.443 20.575 41.104 20.092 40.9 19.534L42.655 18.877C42.757 19.165 42.952 19.423 43.24 19.651C43.534 19.873 43.882 20.047 44.284 20.173C44.692 20.299 45.121 20.362 45.571 20.362C46.051 20.362 46.501 20.284 46.921 20.128C47.347 19.972 47.689 19.756 47.947 19.48C48.211 19.204 48.343 18.88 48.343 18.508C48.343 18.124 48.205 17.809 47.929 17.563C47.659 17.317 47.311 17.122 46.885 16.978C46.465 16.834 46.027 16.726 45.571 16.654C44.689 16.51 43.897 16.3 43.195 16.024C42.499 15.748 41.947 15.361 41.539 14.863C41.137 14.365 40.936 13.717 40.936 12.919C40.936 12.169 41.149 11.515 41.575 10.957C42.007 10.399 42.574 9.967 43.276 9.661C43.984 9.349 44.749 9.193 45.571 9.193C46.249 9.193 46.903 9.301 47.533 9.517C48.169 9.727 48.727 10.036 49.207 10.444C49.693 10.846 50.041 11.335 50.251 11.911L48.478 12.55C48.376 12.256 48.181 12.001 47.893 11.785C47.605 11.563 47.257 11.389 46.849 11.263C46.447 11.137 46.021 11.074 45.571 11.074C45.091 11.068 44.641 11.146 44.221 11.308C43.807 11.464 43.468 11.68 43.204 11.956C42.94 12.232 42.808 12.553 42.808 12.919C42.808 13.369 42.931 13.711 43.177 13.945C43.423 14.179 43.753 14.353 44.167 14.467C44.587 14.575 45.055 14.674 45.571 14.764C46.399 14.896 47.164 15.115 47.866 15.421C48.574 15.727 49.141 16.135 49.567 16.645C49.999 17.149 50.215 17.77 50.215 18.508C50.215 19.252 49.999 19.906 49.567 20.47C49.141 21.028 48.574 21.463 47.866 21.775C47.164 22.081 46.399 22.234 45.571 22.234ZM56.8183 14.872H54.9283L54.9193 22H53.0473L53.0563 14.872H51.6253V13H53.0563L53.0473 10.174H54.9193L54.9283 13H56.8183V14.872ZM58.0696 18.625V13H59.9416V18.166C59.9416 18.568 60.0406 18.934 60.2386 19.264C60.4366 19.594 60.7006 19.858 61.0306 20.056C61.3606 20.248 61.7236 20.344 62.1196 20.344C62.5216 20.344 62.8846 20.248 63.2086 20.056C63.5386 19.858 63.7996 19.594 63.9916 19.264C64.1896 18.934 64.2886 18.568 64.2886 18.166V13H66.1606L66.1696 22H64.2976L64.2886 21.028C63.9826 21.4 63.6016 21.694 63.1456 21.91C62.6896 22.126 62.2006 22.234 61.6786 22.234C61.0126 22.234 60.4066 22.072 59.8606 21.748C59.3146 21.424 58.8796 20.989 58.5556 20.443C58.2316 19.897 58.0696 19.291 58.0696 18.625ZM74.8625 8.5H76.7345V22H74.8625V20.677C74.5685 21.145 74.1845 21.523 73.7105 21.811C73.2365 22.093 72.6815 22.234 72.0455 22.234C71.3915 22.234 70.7795 22.111 70.2095 21.865C69.6395 21.619 69.1355 21.28 68.6975 20.848C68.2655 20.41 67.9265 19.906 67.6805 19.336C67.4345 18.766 67.3115 18.154 67.3115 17.5C67.3115 16.846 67.4345 16.234 67.6805 15.664C67.9265 15.088 68.2655 14.584 68.6975 14.152C69.1355 13.714 69.6395 13.372 70.2095 13.126C70.7795 12.88 71.3915 12.757 72.0455 12.757C72.6815 12.757 73.2365 12.901 73.7105 13.189C74.1845 13.471 74.5685 13.843 74.8625 14.305V8.5ZM72.0635 20.425C72.5915 20.425 73.0535 20.296 73.4495 20.038C73.8455 19.774 74.1515 19.42 74.3675 18.976C74.5895 18.532 74.7005 18.04 74.7005 17.5C74.7005 16.954 74.5895 16.459 74.3675 16.015C74.1455 15.571 73.8365 15.22 73.4405 14.962C73.0505 14.698 72.5915 14.566 72.0635 14.566C71.5415 14.566 71.0645 14.698 70.6325 14.962C70.2065 15.226 69.8645 15.58 69.6065 16.024C69.3545 16.468 69.2285 16.96 69.2285 17.5C69.2285 18.046 69.3575 18.541 69.6155 18.985C69.8795 19.423 70.2245 19.774 70.6505 20.038C71.0825 20.296 71.5535 20.425 72.0635 20.425ZM84.5634 13H86.5614L81.6294 26.5H79.6404L81.2694 22L78.0384 13H80.0814L82.2054 19.435L84.5634 13ZM94.1972 22.234C93.3452 22.234 92.5442 22.066 91.7942 21.73C91.0442 21.388 90.3842 20.92 89.8142 20.326C89.2502 19.726 88.8062 19.03 88.4822 18.238C88.1642 17.446 88.0052 16.6 88.0052 15.7C88.0052 14.8 88.1642 13.954 88.4822 13.162C88.8062 12.37 89.2502 11.677 89.8142 11.083C90.3842 10.483 91.0442 10.015 91.7942 9.679C92.5442 9.337 93.3452 9.166 94.1972 9.166C95.2172 9.166 96.1562 9.403 97.0142 9.877C97.8722 10.351 98.5832 10.981 99.1472 11.767L97.4822 12.658C97.0922 12.166 96.6092 11.773 96.0332 11.479C95.4572 11.185 94.8452 11.038 94.1972 11.038C93.5972 11.038 93.0362 11.161 92.5142 11.407C91.9922 11.653 91.5332 11.989 91.1372 12.415C90.7412 12.841 90.4322 13.336 90.2102 13.9C89.9882 14.464 89.8772 15.064 89.8772 15.7C89.8772 16.342 89.9882 16.945 90.2102 17.509C90.4322 18.067 90.7412 18.562 91.1372 18.994C91.5392 19.42 92.0012 19.756 92.5232 20.002C93.0452 20.242 93.6032 20.362 94.1972 20.362C94.8572 20.362 95.4722 20.215 96.0422 19.921C96.6182 19.621 97.0982 19.225 97.4822 18.733L99.1472 19.642C98.5832 20.428 97.8722 21.058 97.0142 21.532C96.1562 22 95.2172 22.234 94.1972 22.234ZM100.846 22V13H102.718V13.954C103.03 13.582 103.414 13.288 103.87 13.072C104.326 12.856 104.818 12.748 105.346 12.748C105.682 12.748 106.015 12.793 106.345 12.883L105.598 14.773C105.364 14.683 105.13 14.638 104.896 14.638C104.5 14.638 104.137 14.737 103.807 14.935C103.477 15.127 103.213 15.388 103.015 15.718C102.817 16.048 102.718 16.414 102.718 16.816V22H100.846ZM110.923 22.234C110.095 22.234 109.339 22.021 108.655 21.595C107.977 21.169 107.434 20.599 107.026 19.885C106.624 19.165 106.423 18.37 106.423 17.5C106.423 16.84 106.54 16.225 106.774 15.655C107.008 15.079 107.329 14.575 107.737 14.143C108.151 13.705 108.631 13.363 109.177 13.117C109.723 12.871 110.305 12.748 110.923 12.748C111.613 12.748 112.246 12.892 112.822 13.18C113.398 13.462 113.89 13.855 114.298 14.359C114.706 14.857 115.006 15.433 115.198 16.087C115.39 16.735 115.447 17.425 115.369 18.157H108.43C108.508 18.571 108.658 18.946 108.88 19.282C109.108 19.612 109.396 19.873 109.744 20.065C110.098 20.257 110.491 20.356 110.923 20.362C111.379 20.362 111.793 20.248 112.165 20.02C112.543 19.792 112.852 19.477 113.092 19.075L114.991 19.516C114.631 20.314 114.088 20.968 113.362 21.478C112.636 21.982 111.823 22.234 110.923 22.234ZM108.367 16.726H113.479C113.419 16.294 113.266 15.904 113.02 15.556C112.78 15.202 112.477 14.923 112.111 14.719C111.751 14.509 111.355 14.404 110.923 14.404C110.497 14.404 110.101 14.506 109.735 14.71C109.375 14.914 109.075 15.193 108.835 15.547C108.601 15.895 108.445 16.288 108.367 16.726ZM119.594 22.171C119.12 22.141 118.658 22.045 118.208 21.883C117.758 21.721 117.362 21.502 117.02 21.226C116.684 20.944 116.432 20.614 116.264 20.236L117.857 19.552C117.935 19.714 118.07 19.873 118.262 20.029C118.46 20.185 118.691 20.314 118.955 20.416C119.219 20.512 119.495 20.56 119.783 20.56C120.065 20.56 120.326 20.521 120.566 20.443C120.812 20.359 121.013 20.233 121.169 20.065C121.325 19.897 121.403 19.696 121.403 19.462C121.403 19.198 121.313 18.994 121.133 18.85C120.959 18.7 120.74 18.586 120.476 18.508C120.212 18.43 119.948 18.355 119.684 18.283C119.096 18.151 118.556 17.971 118.064 17.743C117.578 17.509 117.191 17.212 116.903 16.852C116.615 16.486 116.471 16.039 116.471 15.511C116.471 14.935 116.627 14.437 116.939 14.017C117.251 13.591 117.659 13.264 118.163 13.036C118.673 12.808 119.216 12.694 119.792 12.694C120.512 12.694 121.172 12.847 121.772 13.153C122.372 13.459 122.831 13.879 123.149 14.413L121.664 15.295C121.574 15.115 121.439 14.953 121.259 14.809C121.079 14.665 120.875 14.551 120.647 14.467C120.419 14.377 120.182 14.326 119.936 14.314C119.63 14.302 119.345 14.338 119.081 14.422C118.823 14.5 118.616 14.626 118.46 14.8C118.304 14.974 118.226 15.196 118.226 15.466C118.226 15.73 118.319 15.928 118.505 16.06C118.691 16.186 118.925 16.288 119.207 16.366C119.495 16.444 119.789 16.531 120.089 16.627C120.623 16.795 121.124 17.002 121.592 17.248C122.06 17.488 122.438 17.785 122.726 18.139C123.014 18.493 123.152 18.925 123.14 19.435C123.14 19.999 122.969 20.494 122.627 20.92C122.291 21.346 121.853 21.67 121.313 21.892C120.773 22.114 120.2 22.207 119.594 22.171ZM129.434 14.872H127.544L127.535 22H125.663L125.672 14.872H124.241V13H125.672L125.663 10.174H127.535L127.544 13H129.434V14.872Z" fill="#048BDC"/>
<defs>
<clipPath id="clip0_2493_40221">
<rect width="32" height="32" fill="white"/>
</clipPath>
</defs>
</svg>
